<mxfile host="app.diagrams.net" modified="2023-06-27T11:27:45.150Z" agent="Mozilla/5.0 (Windows NT 10.0; Win64; x64) AppleWebKit/537.36 (KHTML, like Gecko) Chrome/114.0.0.0 Safari/537.36" etag="X9FlzdslFa7DHX5AN6Uu" version="21.5.1" type="github">
  <diagram name="第 1 页" id="GUdmcjWF9E9t4015Ca2q">
    <mxGraphModel dx="1372" dy="762" grid="1" gridSize="10" guides="1" tooltips="1" connect="1" arrows="1" fold="1" page="1" pageScale="1" pageWidth="827" pageHeight="1169" math="0" shadow="0">
      <root>
        <mxCell id="0" />
        <mxCell id="1" parent="0" />
        <mxCell id="tXhUYLvb_TP6XZ-ZbwBq-10" value="" style="endArrow=classic;html=1;rounded=0;fillColor=#dae8fc;strokeColor=#6c8ebf;strokeWidth=3;" edge="1" parent="1">
          <mxGeometry width="50" height="50" relative="1" as="geometry">
            <mxPoint x="160" y="200" as="sourcePoint" />
            <mxPoint x="210" y="199.5" as="targetPoint" />
          </mxGeometry>
        </mxCell>
        <mxCell id="tXhUYLvb_TP6XZ-ZbwBq-15" value="" style="endArrow=classic;html=1;rounded=0;fillColor=#dae8fc;strokeColor=#6c8ebf;strokeWidth=3;" edge="1" parent="1">
          <mxGeometry width="50" height="50" relative="1" as="geometry">
            <mxPoint x="380" y="200.25" as="sourcePoint" />
            <mxPoint x="430" y="199.75" as="targetPoint" />
          </mxGeometry>
        </mxCell>
        <mxCell id="tXhUYLvb_TP6XZ-ZbwBq-22" value="&lt;b&gt;Prompt&lt;/b&gt;" style="rounded=1;whiteSpace=wrap;html=1;fillColor=#b0e3e6;strokeColor=#0e8088;" vertex="1" parent="1">
          <mxGeometry x="40" y="260" width="120" height="20" as="geometry" />
        </mxCell>
        <mxCell id="tXhUYLvb_TP6XZ-ZbwBq-23" style="edgeStyle=orthogonalEdgeStyle;rounded=0;orthogonalLoop=1;jettySize=auto;html=1;exitX=0.5;exitY=1;exitDx=0;exitDy=0;" edge="1" parent="1" source="tXhUYLvb_TP6XZ-ZbwBq-22" target="tXhUYLvb_TP6XZ-ZbwBq-22">
          <mxGeometry relative="1" as="geometry" />
        </mxCell>
        <mxCell id="tXhUYLvb_TP6XZ-ZbwBq-24" value="" style="endArrow=classic;html=1;rounded=0;fillColor=#dae8fc;strokeColor=#6c8ebf;strokeWidth=3;" edge="1" parent="1">
          <mxGeometry width="50" height="50" relative="1" as="geometry">
            <mxPoint x="530" y="200" as="sourcePoint" />
            <mxPoint x="580" y="199.5" as="targetPoint" />
          </mxGeometry>
        </mxCell>
        <mxCell id="tXhUYLvb_TP6XZ-ZbwBq-60" value="" style="group" vertex="1" connectable="0" parent="1">
          <mxGeometry x="50" y="150" width="100" height="100" as="geometry" />
        </mxCell>
        <mxCell id="tXhUYLvb_TP6XZ-ZbwBq-1" value="" style="whiteSpace=wrap;html=1;aspect=fixed;fillColor=#ffe6cc;strokeColor=#d79b00;container=0;" vertex="1" parent="tXhUYLvb_TP6XZ-ZbwBq-60">
          <mxGeometry x="20" width="80" height="80" as="geometry" />
        </mxCell>
        <mxCell id="tXhUYLvb_TP6XZ-ZbwBq-2" value="" style="whiteSpace=wrap;html=1;aspect=fixed;fillColor=#ffe6cc;strokeColor=#d79b00;container=0;" vertex="1" parent="tXhUYLvb_TP6XZ-ZbwBq-60">
          <mxGeometry x="10" y="10" width="80" height="80" as="geometry" />
        </mxCell>
        <mxCell id="tXhUYLvb_TP6XZ-ZbwBq-4" value="&lt;b&gt;Video&lt;/b&gt;" style="whiteSpace=wrap;html=1;aspect=fixed;fillColor=#ffe6cc;strokeColor=#d79b00;container=0;" vertex="1" parent="tXhUYLvb_TP6XZ-ZbwBq-60">
          <mxGeometry y="20" width="80" height="80" as="geometry" />
        </mxCell>
        <mxCell id="tXhUYLvb_TP6XZ-ZbwBq-61" value="" style="group" vertex="1" connectable="0" parent="1">
          <mxGeometry x="220" y="152" width="150" height="100" as="geometry" />
        </mxCell>
        <mxCell id="tXhUYLvb_TP6XZ-ZbwBq-21" value="" style="rounded=1;whiteSpace=wrap;html=1;glass=0;fillStyle=auto;shadow=0;fillColor=#d0cee2;strokeColor=#56517e;" vertex="1" parent="tXhUYLvb_TP6XZ-ZbwBq-61">
          <mxGeometry width="150" height="100" as="geometry" />
        </mxCell>
        <mxCell id="tXhUYLvb_TP6XZ-ZbwBq-9" value="&lt;b&gt;VAE&lt;/b&gt;" style="shape=trapezoid;perimeter=trapezoidPerimeter;whiteSpace=wrap;html=1;fixedSize=1;rotation=90;fillColor=#dae8fc;strokeColor=#6c8ebf;rounded=1;" vertex="1" parent="tXhUYLvb_TP6XZ-ZbwBq-61">
          <mxGeometry y="18" width="80" height="60" as="geometry" />
        </mxCell>
        <mxCell id="tXhUYLvb_TP6XZ-ZbwBq-17" value="&lt;b&gt;RCNet&lt;/b&gt;" style="shape=trapezoid;perimeter=trapezoidPerimeter;whiteSpace=wrap;html=1;fixedSize=1;rotation=90;fillColor=#fff2cc;strokeColor=#d6b656;rounded=1;" vertex="1" parent="tXhUYLvb_TP6XZ-ZbwBq-61">
          <mxGeometry x="70" y="18" width="80" height="60" as="geometry" />
        </mxCell>
        <mxCell id="tXhUYLvb_TP6XZ-ZbwBq-63" value="" style="whiteSpace=wrap;html=1;aspect=fixed;fillColor=#eeeeee;strokeColor=#36393d;" vertex="1" parent="1">
          <mxGeometry x="464" y="35" width="56" height="56" as="geometry" />
        </mxCell>
        <mxCell id="tXhUYLvb_TP6XZ-ZbwBq-64" value="" style="whiteSpace=wrap;html=1;aspect=fixed;fillColor=#eeeeee;strokeColor=#36393d;" vertex="1" parent="1">
          <mxGeometry x="457" y="42" width="56" height="56" as="geometry" />
        </mxCell>
        <mxCell id="tXhUYLvb_TP6XZ-ZbwBq-65" value="&lt;b&gt;Noise&lt;/b&gt;" style="whiteSpace=wrap;html=1;aspect=fixed;fillColor=#eeeeee;strokeColor=#36393d;" vertex="1" parent="1">
          <mxGeometry x="450" y="49" width="56" height="56" as="geometry" />
        </mxCell>
        <mxCell id="tXhUYLvb_TP6XZ-ZbwBq-76" value="" style="endArrow=classic;html=1;rounded=0;fillColor=#dae8fc;strokeColor=#6c8ebf;strokeWidth=3;" edge="1" parent="1">
          <mxGeometry width="50" height="50" relative="1" as="geometry">
            <mxPoint x="484.94" y="112" as="sourcePoint" />
            <mxPoint x="484.7" y="152" as="targetPoint" />
          </mxGeometry>
        </mxCell>
        <mxCell id="tXhUYLvb_TP6XZ-ZbwBq-91" value="" style="endArrow=classic;html=1;rounded=0;exitX=0.5;exitY=1;exitDx=0;exitDy=0;fillColor=#f8cecc;strokeColor=#b85450;strokeWidth=3;" edge="1" parent="1" source="tXhUYLvb_TP6XZ-ZbwBq-166">
          <mxGeometry width="50" height="50" relative="1" as="geometry">
            <mxPoint x="90" y="450" as="sourcePoint" />
            <mxPoint x="720" y="280" as="targetPoint" />
            <Array as="points">
              <mxPoint x="720" y="400" />
            </Array>
          </mxGeometry>
        </mxCell>
        <mxCell id="tXhUYLvb_TP6XZ-ZbwBq-99" value="" style="endArrow=classic;html=1;rounded=0;strokeWidth=3;fillColor=#dae8fc;strokeColor=#6c8ebf;" edge="1" parent="1">
          <mxGeometry width="50" height="50" relative="1" as="geometry">
            <mxPoint x="1050" y="199.47" as="sourcePoint" />
            <mxPoint x="1110" y="199.47" as="targetPoint" />
          </mxGeometry>
        </mxCell>
        <mxCell id="tXhUYLvb_TP6XZ-ZbwBq-100" value="" style="whiteSpace=wrap;html=1;aspect=fixed;fillColor=#eeeeee;strokeColor=#36393d;" vertex="1" parent="1">
          <mxGeometry x="1144" y="160" width="56" height="56" as="geometry" />
        </mxCell>
        <mxCell id="tXhUYLvb_TP6XZ-ZbwBq-101" value="" style="whiteSpace=wrap;html=1;aspect=fixed;fillColor=#eeeeee;strokeColor=#36393d;" vertex="1" parent="1">
          <mxGeometry x="1137" y="167" width="56" height="56" as="geometry" />
        </mxCell>
        <mxCell id="tXhUYLvb_TP6XZ-ZbwBq-102" value="&lt;b&gt;Predicted&lt;br&gt;Noise&lt;br&gt;&lt;/b&gt;" style="whiteSpace=wrap;html=1;aspect=fixed;fillColor=#eeeeee;strokeColor=#36393d;" vertex="1" parent="1">
          <mxGeometry x="1130" y="174" width="56" height="56" as="geometry" />
        </mxCell>
        <mxCell id="tXhUYLvb_TP6XZ-ZbwBq-103" value="" style="endArrow=classic;startArrow=classic;html=1;rounded=0;exitX=1;exitY=0.5;exitDx=0;exitDy=0;entryX=0.5;entryY=0;entryDx=0;entryDy=0;fillColor=#ffe6cc;strokeColor=#d79b00;strokeWidth=3;" edge="1" parent="1" source="tXhUYLvb_TP6XZ-ZbwBq-63" target="tXhUYLvb_TP6XZ-ZbwBq-100">
          <mxGeometry width="50" height="50" relative="1" as="geometry">
            <mxPoint x="740" y="170" as="sourcePoint" />
            <mxPoint x="1150" y="50" as="targetPoint" />
            <Array as="points">
              <mxPoint x="1172" y="63" />
            </Array>
          </mxGeometry>
        </mxCell>
        <mxCell id="tXhUYLvb_TP6XZ-ZbwBq-95" style="edgeStyle=orthogonalEdgeStyle;rounded=0;orthogonalLoop=1;jettySize=auto;html=1;exitX=0.5;exitY=1;exitDx=0;exitDy=0;fillColor=#f8cecc;strokeColor=#b85450;strokeWidth=3;" edge="1" parent="1" source="tXhUYLvb_TP6XZ-ZbwBq-14">
          <mxGeometry relative="1" as="geometry">
            <mxPoint x="720" y="280" as="targetPoint" />
            <Array as="points">
              <mxPoint x="478" y="400" />
              <mxPoint x="720" y="400" />
              <mxPoint x="720" y="280" />
            </Array>
          </mxGeometry>
        </mxCell>
        <mxCell id="tXhUYLvb_TP6XZ-ZbwBq-106" value="" style="group" vertex="1" connectable="0" parent="1">
          <mxGeometry x="450" y="160" width="70" height="70" as="geometry" />
        </mxCell>
        <mxCell id="tXhUYLvb_TP6XZ-ZbwBq-12" value="" style="whiteSpace=wrap;html=1;aspect=fixed;fillColor=#dae8fc;strokeColor=#6c8ebf;" vertex="1" parent="tXhUYLvb_TP6XZ-ZbwBq-106">
          <mxGeometry x="14" width="56" height="56" as="geometry" />
        </mxCell>
        <mxCell id="tXhUYLvb_TP6XZ-ZbwBq-13" value="" style="whiteSpace=wrap;html=1;aspect=fixed;fillColor=#dae8fc;strokeColor=#6c8ebf;" vertex="1" parent="tXhUYLvb_TP6XZ-ZbwBq-106">
          <mxGeometry x="7" y="7" width="56" height="56" as="geometry" />
        </mxCell>
        <mxCell id="tXhUYLvb_TP6XZ-ZbwBq-14" value="&lt;b&gt;Noised_Latents&lt;/b&gt;" style="whiteSpace=wrap;html=1;aspect=fixed;fillColor=#dae8fc;strokeColor=#6c8ebf;" vertex="1" parent="tXhUYLvb_TP6XZ-ZbwBq-106">
          <mxGeometry y="14" width="56" height="56" as="geometry" />
        </mxCell>
        <mxCell id="tXhUYLvb_TP6XZ-ZbwBq-131" value="" style="group" vertex="1" connectable="0" parent="1">
          <mxGeometry x="590" y="110" width="440" height="190" as="geometry" />
        </mxCell>
        <mxCell id="tXhUYLvb_TP6XZ-ZbwBq-38" value="" style="rounded=1;whiteSpace=wrap;html=1;fillColor=#fad7ac;strokeColor=#b46504;" vertex="1" parent="tXhUYLvb_TP6XZ-ZbwBq-131">
          <mxGeometry x="180" y="60" width="20" height="70" as="geometry" />
        </mxCell>
        <mxCell id="tXhUYLvb_TP6XZ-ZbwBq-39" value="" style="rounded=1;whiteSpace=wrap;html=1;fillColor=#fad9d5;strokeColor=#ae4132;" vertex="1" parent="tXhUYLvb_TP6XZ-ZbwBq-131">
          <mxGeometry x="210" y="60" width="20" height="70" as="geometry" />
        </mxCell>
        <mxCell id="tXhUYLvb_TP6XZ-ZbwBq-40" value="" style="rounded=1;whiteSpace=wrap;html=1;fillColor=#fad9d5;strokeColor=#ae4132;" vertex="1" parent="tXhUYLvb_TP6XZ-ZbwBq-131">
          <mxGeometry x="330" y="25" width="20" height="140" as="geometry" />
        </mxCell>
        <mxCell id="tXhUYLvb_TP6XZ-ZbwBq-49" value="&lt;font style=&quot;font-size: 20px;&quot;&gt;&lt;b&gt;...&lt;/b&gt;&lt;/font&gt;" style="text;html=1;strokeColor=none;fillColor=none;align=center;verticalAlign=middle;whiteSpace=wrap;rounded=0;" vertex="1" parent="tXhUYLvb_TP6XZ-ZbwBq-131">
          <mxGeometry x="340" y="75" width="60" height="30" as="geometry" />
        </mxCell>
        <mxCell id="tXhUYLvb_TP6XZ-ZbwBq-50" value="&lt;font style=&quot;font-size: 20px;&quot;&gt;&lt;b&gt;...&lt;/b&gt;&lt;/font&gt;" style="text;html=1;strokeColor=none;fillColor=none;align=center;verticalAlign=middle;whiteSpace=wrap;rounded=0;" vertex="1" parent="tXhUYLvb_TP6XZ-ZbwBq-131">
          <mxGeometry x="250" y="75" width="60" height="30" as="geometry" />
        </mxCell>
        <mxCell id="tXhUYLvb_TP6XZ-ZbwBq-80" value="" style="rounded=1;whiteSpace=wrap;html=1;fillColor=#fad9d5;strokeColor=#ae4132;" vertex="1" parent="tXhUYLvb_TP6XZ-ZbwBq-131">
          <mxGeometry x="420" width="20" height="190" as="geometry" />
        </mxCell>
        <mxCell id="tXhUYLvb_TP6XZ-ZbwBq-81" value="" style="rounded=1;whiteSpace=wrap;html=1;fillColor=#fad7ac;strokeColor=#b46504;" vertex="1" parent="tXhUYLvb_TP6XZ-ZbwBq-131">
          <mxGeometry x="390" width="20" height="190" as="geometry" />
        </mxCell>
        <mxCell id="tXhUYLvb_TP6XZ-ZbwBq-85" value="" style="rounded=1;whiteSpace=wrap;html=1;fillColor=#fad7ac;strokeColor=#b46504;" vertex="1" parent="tXhUYLvb_TP6XZ-ZbwBq-131">
          <mxGeometry x="240" y="60" width="20" height="70" as="geometry" />
        </mxCell>
        <mxCell id="tXhUYLvb_TP6XZ-ZbwBq-86" value="" style="rounded=1;whiteSpace=wrap;html=1;fillColor=#fad7ac;strokeColor=#b46504;" vertex="1" parent="tXhUYLvb_TP6XZ-ZbwBq-131">
          <mxGeometry x="300" y="25" width="20" height="140" as="geometry" />
        </mxCell>
        <mxCell id="tXhUYLvb_TP6XZ-ZbwBq-121" value="" style="rounded=1;whiteSpace=wrap;html=1;fillColor=#fad7ac;strokeColor=#b46504;" vertex="1" parent="tXhUYLvb_TP6XZ-ZbwBq-131">
          <mxGeometry width="20" height="190" as="geometry" />
        </mxCell>
        <mxCell id="tXhUYLvb_TP6XZ-ZbwBq-122" value="" style="rounded=1;whiteSpace=wrap;html=1;fillColor=#fad9d5;strokeColor=#ae4132;" vertex="1" parent="tXhUYLvb_TP6XZ-ZbwBq-131">
          <mxGeometry x="30" width="20" height="190" as="geometry" />
        </mxCell>
        <mxCell id="tXhUYLvb_TP6XZ-ZbwBq-123" value="&lt;font style=&quot;font-size: 20px;&quot;&gt;&lt;b&gt;...&lt;/b&gt;&lt;/font&gt;" style="text;html=1;strokeColor=none;fillColor=none;align=center;verticalAlign=middle;whiteSpace=wrap;rounded=0;" vertex="1" parent="tXhUYLvb_TP6XZ-ZbwBq-131">
          <mxGeometry x="40" y="75" width="60" height="30" as="geometry" />
        </mxCell>
        <mxCell id="tXhUYLvb_TP6XZ-ZbwBq-124" value="" style="endArrow=classic;html=1;rounded=0;dashed=1;" edge="1" parent="tXhUYLvb_TP6XZ-ZbwBq-131">
          <mxGeometry width="50" height="50" relative="1" as="geometry">
            <mxPoint x="60" as="sourcePoint" />
            <mxPoint x="380" as="targetPoint" />
          </mxGeometry>
        </mxCell>
        <mxCell id="tXhUYLvb_TP6XZ-ZbwBq-125" value="" style="endArrow=classic;html=1;rounded=0;dashed=1;" edge="1" parent="tXhUYLvb_TP6XZ-ZbwBq-131">
          <mxGeometry width="50" height="50" relative="1" as="geometry">
            <mxPoint x="150" y="35" as="sourcePoint" />
            <mxPoint x="290" y="35" as="targetPoint" />
          </mxGeometry>
        </mxCell>
        <mxCell id="tXhUYLvb_TP6XZ-ZbwBq-126" value="" style="endArrow=classic;html=1;rounded=0;dashed=1;" edge="1" parent="tXhUYLvb_TP6XZ-ZbwBq-131">
          <mxGeometry width="50" height="50" relative="1" as="geometry">
            <mxPoint x="150" y="155" as="sourcePoint" />
            <mxPoint x="290" y="155" as="targetPoint" />
          </mxGeometry>
        </mxCell>
        <mxCell id="tXhUYLvb_TP6XZ-ZbwBq-127" value="" style="endArrow=classic;html=1;rounded=0;dashed=1;" edge="1" parent="tXhUYLvb_TP6XZ-ZbwBq-131">
          <mxGeometry width="50" height="50" relative="1" as="geometry">
            <mxPoint x="60" y="185" as="sourcePoint" />
            <mxPoint x="380" y="185" as="targetPoint" />
          </mxGeometry>
        </mxCell>
        <mxCell id="tXhUYLvb_TP6XZ-ZbwBq-128" value="" style="rounded=1;whiteSpace=wrap;html=1;fillColor=#fad7ac;strokeColor=#b46504;" vertex="1" parent="tXhUYLvb_TP6XZ-ZbwBq-131">
          <mxGeometry x="90" y="27" width="20" height="140" as="geometry" />
        </mxCell>
        <mxCell id="tXhUYLvb_TP6XZ-ZbwBq-129" value="" style="rounded=1;whiteSpace=wrap;html=1;fillColor=#fad9d5;strokeColor=#ae4132;" vertex="1" parent="tXhUYLvb_TP6XZ-ZbwBq-131">
          <mxGeometry x="120" y="27" width="20" height="140" as="geometry" />
        </mxCell>
        <mxCell id="tXhUYLvb_TP6XZ-ZbwBq-130" value="&lt;font style=&quot;font-size: 20px;&quot;&gt;&lt;b&gt;...&lt;/b&gt;&lt;/font&gt;" style="text;html=1;strokeColor=none;fillColor=none;align=center;verticalAlign=middle;whiteSpace=wrap;rounded=0;" vertex="1" parent="tXhUYLvb_TP6XZ-ZbwBq-131">
          <mxGeometry x="130" y="75" width="60" height="30" as="geometry" />
        </mxCell>
        <mxCell id="tXhUYLvb_TP6XZ-ZbwBq-132" value="" style="rounded=1;whiteSpace=wrap;html=1;fillColor=#f8cecc;strokeColor=#b85450;" vertex="1" parent="1">
          <mxGeometry x="1086" y="350" width="30" height="30" as="geometry" />
        </mxCell>
        <mxCell id="tXhUYLvb_TP6XZ-ZbwBq-133" value="Attention Block" style="text;html=1;strokeColor=none;fillColor=none;align=center;verticalAlign=middle;whiteSpace=wrap;rounded=0;" vertex="1" parent="1">
          <mxGeometry x="1135" y="350" width="60" height="30" as="geometry" />
        </mxCell>
        <mxCell id="tXhUYLvb_TP6XZ-ZbwBq-134" value="" style="rounded=1;whiteSpace=wrap;html=1;fillColor=#fad7ac;strokeColor=#b46504;" vertex="1" parent="1">
          <mxGeometry x="1086" y="390" width="30" height="30" as="geometry" />
        </mxCell>
        <mxCell id="tXhUYLvb_TP6XZ-ZbwBq-155" value="Conv&lt;br&gt;Block" style="text;html=1;strokeColor=none;fillColor=none;align=center;verticalAlign=middle;whiteSpace=wrap;rounded=0;" vertex="1" parent="1">
          <mxGeometry x="1135" y="390" width="60" height="30" as="geometry" />
        </mxCell>
        <mxCell id="tXhUYLvb_TP6XZ-ZbwBq-156" value="" style="endArrow=classic;html=1;rounded=0;fillColor=#ffe6cc;strokeColor=#d79b00;startArrow=classic;strokeWidth=3;" edge="1" parent="1">
          <mxGeometry width="50" height="50" relative="1" as="geometry">
            <mxPoint x="1084" y="290" as="sourcePoint" />
            <mxPoint x="1124" y="290" as="targetPoint" />
          </mxGeometry>
        </mxCell>
        <mxCell id="tXhUYLvb_TP6XZ-ZbwBq-158" value="Make&lt;br&gt;Loss" style="text;html=1;strokeColor=none;fillColor=none;align=center;verticalAlign=middle;whiteSpace=wrap;rounded=0;" vertex="1" parent="1">
          <mxGeometry x="1133" y="280" width="60" height="30" as="geometry" />
        </mxCell>
        <mxCell id="tXhUYLvb_TP6XZ-ZbwBq-159" value="" style="endArrow=classic;html=1;rounded=0;fillColor=#f8cecc;strokeColor=#b85450;startArrow=none;strokeWidth=3;startFill=0;" edge="1" parent="1">
          <mxGeometry width="50" height="50" relative="1" as="geometry">
            <mxPoint x="1086" y="320" as="sourcePoint" />
            <mxPoint x="1126" y="320" as="targetPoint" />
          </mxGeometry>
        </mxCell>
        <mxCell id="tXhUYLvb_TP6XZ-ZbwBq-161" value="Attention" style="text;html=1;strokeColor=none;fillColor=none;align=center;verticalAlign=middle;whiteSpace=wrap;rounded=0;" vertex="1" parent="1">
          <mxGeometry x="1135" y="310" width="60" height="30" as="geometry" />
        </mxCell>
        <mxCell id="tXhUYLvb_TP6XZ-ZbwBq-167" value="" style="endArrow=classic;html=1;rounded=0;exitX=0.5;exitY=1;exitDx=0;exitDy=0;fillColor=#f8cecc;strokeColor=#b85450;strokeWidth=3;entryX=0.5;entryY=0;entryDx=0;entryDy=0;" edge="1" parent="1" source="tXhUYLvb_TP6XZ-ZbwBq-22" target="tXhUYLvb_TP6XZ-ZbwBq-166">
          <mxGeometry width="50" height="50" relative="1" as="geometry">
            <mxPoint x="100" y="280" as="sourcePoint" />
            <mxPoint x="720" y="280" as="targetPoint" />
            <Array as="points" />
          </mxGeometry>
        </mxCell>
        <mxCell id="tXhUYLvb_TP6XZ-ZbwBq-166" value="&lt;b&gt;Expend&lt;/b&gt;" style="shape=trapezoid;perimeter=trapezoidPerimeter;whiteSpace=wrap;html=1;fixedSize=1;rotation=-90;rounded=1;fillColor=#cce5ff;strokeColor=#36393d;" vertex="1" parent="1">
          <mxGeometry x="160" y="370" width="120" height="60" as="geometry" />
        </mxCell>
      </root>
    </mxGraphModel>
  </diagram>
</mxfile>
